<mxfile host="app.diagrams.net" modified="2022-10-12T10:23:40.595Z" agent="5.0 (Windows NT 10.0; Win64; x64) AppleWebKit/537.36 (KHTML, like Gecko) Chrome/92.0.4515.131 Safari/537.36 Edg/92.0.902.67" etag="BCuJVHbjJWKeAEckXgUT" version="20.4.0" type="github" pages="2">
  <diagram id="PFMOGSAiLsU_rf0O2v_4" name="Страница 1">
    <mxGraphModel dx="2075" dy="706" grid="1" gridSize="10" guides="1" tooltips="1" connect="1" arrows="1" fold="1" page="1" pageScale="1" pageWidth="827" pageHeight="1169" math="0" shadow="0">
      <root>
        <mxCell id="0" />
        <mxCell id="1" parent="0" />
        <mxCell id="MH4xzE_HA38-iyvbFyKe-1" value="Менеджер по работе с клиентами" style="text;html=1;resizable=0;autosize=1;align=center;verticalAlign=middle;points=[];fillColor=none;strokeColor=none;rounded=0;" parent="1" vertex="1">
          <mxGeometry x="30" y="90" width="210" height="30" as="geometry" />
        </mxCell>
        <mxCell id="MH4xzE_HA38-iyvbFyKe-2" value="Менеджер по снабжению" style="text;html=1;resizable=0;autosize=1;align=center;verticalAlign=middle;points=[];fillColor=none;strokeColor=none;rounded=0;" parent="1" vertex="1">
          <mxGeometry x="695" y="80" width="160" height="30" as="geometry" />
        </mxCell>
        <mxCell id="MH4xzE_HA38-iyvbFyKe-3" value="Завскладом" style="text;html=1;resizable=0;autosize=1;align=center;verticalAlign=middle;points=[];fillColor=none;strokeColor=none;rounded=0;" parent="1" vertex="1">
          <mxGeometry x="915" y="80" width="90" height="30" as="geometry" />
        </mxCell>
        <mxCell id="MH4xzE_HA38-iyvbFyKe-4" value="&lt;span style=&quot;&quot;&gt;Предприятие по сборке и продаже компьютеров&lt;/span&gt;" style="shape=note;whiteSpace=wrap;html=1;backgroundOutline=1;darkOpacity=0.05;" parent="1" vertex="1">
          <mxGeometry x="-40" y="10" width="270" height="40" as="geometry" />
        </mxCell>
        <mxCell id="MH4xzE_HA38-iyvbFyKe-5" value="Инженер&amp;nbsp;по сборке&amp;nbsp;" style="text;html=1;resizable=0;autosize=1;align=center;verticalAlign=middle;points=[];fillColor=none;strokeColor=none;rounded=0;" parent="1" vertex="1">
          <mxGeometry x="348" y="90" width="130" height="30" as="geometry" />
        </mxCell>
        <mxCell id="MH4xzE_HA38-iyvbFyKe-6" value="Управление информацией&lt;br&gt;&amp;nbsp;о клиенте" style="text;html=1;align=center;verticalAlign=middle;resizable=0;points=[];autosize=1;strokeColor=none;fillColor=none;" parent="1" vertex="1">
          <mxGeometry x="180" y="310" width="170" height="40" as="geometry" />
        </mxCell>
        <mxCell id="MH4xzE_HA38-iyvbFyKe-7" value="Управление информацией о поставщиках" style="text;html=1;align=center;verticalAlign=middle;resizable=0;points=[];autosize=1;strokeColor=none;fillColor=none;" parent="1" vertex="1">
          <mxGeometry x="435" y="320" width="260" height="30" as="geometry" />
        </mxCell>
        <mxCell id="MH4xzE_HA38-iyvbFyKe-8" value="Работа с заказом" style="text;html=1;align=center;verticalAlign=middle;resizable=0;points=[];autosize=1;strokeColor=none;fillColor=none;" parent="1" vertex="1">
          <mxGeometry x="-10" y="270" width="120" height="30" as="geometry" />
        </mxCell>
        <mxCell id="MH4xzE_HA38-iyvbFyKe-9" value="" style="endArrow=classic;html=1;rounded=0;entryX=0;entryY=0;entryDx=0;entryDy=0;exitX=1;exitY=0.5;exitDx=0;exitDy=0;" parent="1" source="MH4xzE_HA38-iyvbFyKe-30" target="MH4xzE_HA38-iyvbFyKe-40" edge="1">
          <mxGeometry width="50" height="50" relative="1" as="geometry">
            <mxPoint x="-5" y="300" as="sourcePoint" />
            <mxPoint x="119.99999999999955" y="300" as="targetPoint" />
          </mxGeometry>
        </mxCell>
        <mxCell id="MH4xzE_HA38-iyvbFyKe-10" value="" style="endArrow=none;dashed=1;html=1;strokeWidth=2;rounded=0;dashPattern=1 2;" parent="1" edge="1">
          <mxGeometry width="50" height="50" relative="1" as="geometry">
            <mxPoint x="129.65999999999985" y="300" as="sourcePoint" />
            <mxPoint x="129.65999999999985" y="120" as="targetPoint" />
          </mxGeometry>
        </mxCell>
        <mxCell id="MH4xzE_HA38-iyvbFyKe-11" value="" style="endArrow=none;dashed=1;html=1;dashPattern=1 3;strokeWidth=2;rounded=0;entryX=0.416;entryY=1.131;entryDx=0;entryDy=0;entryPerimeter=0;exitX=0.471;exitY=-0.021;exitDx=0;exitDy=0;exitPerimeter=0;" parent="1" source="MH4xzE_HA38-iyvbFyKe-41" target="MH4xzE_HA38-iyvbFyKe-5" edge="1">
          <mxGeometry width="50" height="50" relative="1" as="geometry">
            <mxPoint x="400" y="250" as="sourcePoint" />
            <mxPoint x="425" y="250" as="targetPoint" />
          </mxGeometry>
        </mxCell>
        <mxCell id="MH4xzE_HA38-iyvbFyKe-12" value="" style="endArrow=classic;html=1;rounded=0;exitX=1.053;exitY=1.043;exitDx=0;exitDy=0;exitPerimeter=0;entryX=0;entryY=1;entryDx=0;entryDy=0;" parent="1" source="MH4xzE_HA38-iyvbFyKe-41" edge="1">
          <mxGeometry width="50" height="50" relative="1" as="geometry">
            <mxPoint x="445.4399999999996" y="360.79999999999995" as="sourcePoint" />
            <mxPoint x="750" y="360" as="targetPoint" />
          </mxGeometry>
        </mxCell>
        <mxCell id="MH4xzE_HA38-iyvbFyKe-13" value="" style="endArrow=none;dashed=1;html=1;dashPattern=1 3;strokeWidth=2;rounded=0;entryX=0.371;entryY=1.002;entryDx=0;entryDy=0;entryPerimeter=0;startArrow=none;" parent="1" target="MH4xzE_HA38-iyvbFyKe-2" edge="1">
          <mxGeometry width="50" height="50" relative="1" as="geometry">
            <mxPoint x="759.5872566717076" y="490" as="sourcePoint" />
            <mxPoint x="810" y="250" as="targetPoint" />
          </mxGeometry>
        </mxCell>
        <mxCell id="MH4xzE_HA38-iyvbFyKe-14" value="" style="endArrow=classic;html=1;rounded=0;entryX=0;entryY=1;entryDx=0;entryDy=0;exitX=1;exitY=1;exitDx=0;exitDy=0;" parent="1" source="MH4xzE_HA38-iyvbFyKe-52" edge="1">
          <mxGeometry width="50" height="50" relative="1" as="geometry">
            <mxPoint x="770" y="360" as="sourcePoint" />
            <mxPoint x="950" y="360" as="targetPoint" />
          </mxGeometry>
        </mxCell>
        <mxCell id="MH4xzE_HA38-iyvbFyKe-15" value="" style="endArrow=none;dashed=1;html=1;dashPattern=1 3;strokeWidth=2;rounded=0;" parent="1" target="MH4xzE_HA38-iyvbFyKe-3" edge="1">
          <mxGeometry width="50" height="50" relative="1" as="geometry">
            <mxPoint x="960" y="760" as="sourcePoint" />
            <mxPoint x="940" y="260" as="targetPoint" />
          </mxGeometry>
        </mxCell>
        <mxCell id="MH4xzE_HA38-iyvbFyKe-16" value="• Управление информацией&lt;br&gt;&amp;nbsp;о комплектующих&amp;nbsp;" style="text;html=1;align=center;verticalAlign=middle;resizable=0;points=[];autosize=1;strokeColor=none;fillColor=none;" parent="1" vertex="1">
          <mxGeometry x="760" y="310" width="180" height="40" as="geometry" />
        </mxCell>
        <mxCell id="MH4xzE_HA38-iyvbFyKe-17" value="" style="endArrow=classic;html=1;rounded=0;entryX=0.5;entryY=0;entryDx=0;entryDy=0;dashed=1;" parent="1" edge="1">
          <mxGeometry width="50" height="50" relative="1" as="geometry">
            <mxPoint x="960" y="360" as="sourcePoint" />
            <mxPoint x="959.9999999999995" y="440" as="targetPoint" />
          </mxGeometry>
        </mxCell>
        <mxCell id="MH4xzE_HA38-iyvbFyKe-18" value="• Сборка компьютеров" style="text;html=1;align=center;verticalAlign=middle;resizable=0;points=[];autosize=1;strokeColor=none;fillColor=none;" parent="1" vertex="1">
          <mxGeometry x="510" y="485" width="150" height="30" as="geometry" />
        </mxCell>
        <mxCell id="MH4xzE_HA38-iyvbFyKe-19" value="Требование необходимых&lt;br&gt;&amp;nbsp;комплектующих" style="text;html=1;align=center;verticalAlign=middle;resizable=0;points=[];autosize=1;strokeColor=none;fillColor=none;" parent="1" vertex="1">
          <mxGeometry x="780" y="475" width="170" height="40" as="geometry" />
        </mxCell>
        <mxCell id="MH4xzE_HA38-iyvbFyKe-20" value="Учет поступления и выдачи комплектующих" style="text;html=1;align=center;verticalAlign=middle;resizable=0;points=[];autosize=1;strokeColor=none;fillColor=none;" parent="1" vertex="1">
          <mxGeometry x="470" y="600" width="270" height="30" as="geometry" />
        </mxCell>
        <mxCell id="MH4xzE_HA38-iyvbFyKe-21" value="" style="endArrow=classic;html=1;rounded=0;entryX=0.5;entryY=0.5;entryDx=0;entryDy=0;entryPerimeter=0;exitX=1;exitY=0.75;exitDx=0;exitDy=0;" parent="1" source="MH4xzE_HA38-iyvbFyKe-49" edge="1">
          <mxGeometry width="50" height="50" relative="1" as="geometry">
            <mxPoint x="420" y="640" as="sourcePoint" />
            <mxPoint x="1190" y="640" as="targetPoint" />
          </mxGeometry>
        </mxCell>
        <mxCell id="MH4xzE_HA38-iyvbFyKe-22" value="" style="endArrow=none;dashed=1;html=1;dashPattern=1 3;strokeWidth=2;rounded=0;entryX=0.5;entryY=1;entryDx=0;entryDy=0;entryPerimeter=0;" parent="1" edge="1">
          <mxGeometry width="50" height="50" relative="1" as="geometry">
            <mxPoint x="1190" y="520" as="sourcePoint" />
            <mxPoint x="1190" y="110" as="targetPoint" />
          </mxGeometry>
        </mxCell>
        <mxCell id="MH4xzE_HA38-iyvbFyKe-23" value="" style="endArrow=classic;html=1;rounded=0;exitX=0.5;exitY=1;exitDx=0;exitDy=0;" parent="1" target="MH4xzE_HA38-iyvbFyKe-44" edge="1">
          <mxGeometry width="50" height="50" relative="1" as="geometry">
            <mxPoint x="959.9999999999995" y="520" as="sourcePoint" />
            <mxPoint x="439.99999999999955" y="600" as="targetPoint" />
            <Array as="points">
              <mxPoint x="830" y="520" />
            </Array>
          </mxGeometry>
        </mxCell>
        <mxCell id="MH4xzE_HA38-iyvbFyKe-24" value="тестирование комп." style="text;html=1;align=center;verticalAlign=middle;resizable=0;points=[];autosize=1;strokeColor=none;fillColor=none;" parent="1" vertex="1">
          <mxGeometry x="1040" y="610" width="130" height="30" as="geometry" />
        </mxCell>
        <mxCell id="MH4xzE_HA38-iyvbFyKe-25" value="" style="endArrow=classic;html=1;rounded=0;exitX=0;exitY=0.75;exitDx=0;exitDy=0;dashed=1;" parent="1" edge="1">
          <mxGeometry width="50" height="50" relative="1" as="geometry">
            <mxPoint x="1185" y="725.0000000000002" as="sourcePoint" />
            <mxPoint x="135" y="739.9999999999998" as="targetPoint" />
            <Array as="points">
              <mxPoint x="1185" y="740" />
            </Array>
          </mxGeometry>
        </mxCell>
        <mxCell id="MH4xzE_HA38-iyvbFyKe-26" value="готовый заказ" style="text;html=1;align=center;verticalAlign=middle;resizable=0;points=[];autosize=1;strokeColor=none;fillColor=none;" parent="1" vertex="1">
          <mxGeometry x="570" y="710" width="100" height="30" as="geometry" />
        </mxCell>
        <mxCell id="MH4xzE_HA38-iyvbFyKe-27" value="" style="endArrow=classic;html=1;rounded=0;" parent="1" edge="1">
          <mxGeometry width="50" height="50" relative="1" as="geometry">
            <mxPoint x="400" y="360" as="sourcePoint" />
            <mxPoint x="400" y="360" as="targetPoint" />
          </mxGeometry>
        </mxCell>
        <mxCell id="MH4xzE_HA38-iyvbFyKe-28" value="" style="endArrow=classic;html=1;rounded=0;entryX=0.614;entryY=0.995;entryDx=0;entryDy=0;dashed=1;entryPerimeter=0;" parent="1" target="MH4xzE_HA38-iyvbFyKe-41" edge="1">
          <mxGeometry width="50" height="50" relative="1" as="geometry">
            <mxPoint x="406" y="760" as="sourcePoint" />
            <mxPoint x="399.99999999999955" y="400" as="targetPoint" />
          </mxGeometry>
        </mxCell>
        <mxCell id="MH4xzE_HA38-iyvbFyKe-29" value="" style="shape=umlLifeline;participant=umlActor;perimeter=lifelinePerimeter;whiteSpace=wrap;html=1;container=1;collapsible=0;recursiveResize=0;verticalAlign=top;spacingTop=36;outlineConnect=0;size=80;" parent="1" vertex="1">
          <mxGeometry x="-40" y="110" width="40" height="740" as="geometry" />
        </mxCell>
        <mxCell id="MH4xzE_HA38-iyvbFyKe-30" value="" style="whiteSpace=wrap;html=1;" parent="MH4xzE_HA38-iyvbFyKe-29" vertex="1">
          <mxGeometry x="15" y="160" width="15" height="60" as="geometry" />
        </mxCell>
        <mxCell id="MH4xzE_HA38-iyvbFyKe-31" value="" style="whiteSpace=wrap;html=1;" parent="MH4xzE_HA38-iyvbFyKe-29" vertex="1">
          <mxGeometry x="15" y="240" width="15" height="60" as="geometry" />
        </mxCell>
        <mxCell id="MH4xzE_HA38-iyvbFyKe-32" value="" style="whiteSpace=wrap;html=1;" parent="MH4xzE_HA38-iyvbFyKe-29" vertex="1">
          <mxGeometry x="15" y="610" width="10" height="80" as="geometry" />
        </mxCell>
        <mxCell id="MH4xzE_HA38-iyvbFyKe-33" value="заказчик" style="text;html=1;resizable=0;autosize=1;align=center;verticalAlign=middle;points=[];fillColor=none;strokeColor=none;rounded=0;" parent="1" vertex="1">
          <mxGeometry x="-50" y="80" width="70" height="30" as="geometry" />
        </mxCell>
        <mxCell id="MH4xzE_HA38-iyvbFyKe-34" value="" style="endArrow=none;dashed=1;html=1;dashPattern=1 3;strokeWidth=2;rounded=0;startArrow=none;" parent="1" edge="1">
          <mxGeometry width="50" height="50" relative="1" as="geometry">
            <mxPoint x="130" y="709.9999999999998" as="sourcePoint" />
            <mxPoint x="130" y="400" as="targetPoint" />
          </mxGeometry>
        </mxCell>
        <mxCell id="MH4xzE_HA38-iyvbFyKe-35" value="выдача&amp;nbsp;" style="text;html=1;align=center;verticalAlign=middle;resizable=0;points=[];autosize=1;strokeColor=none;fillColor=none;" parent="1" vertex="1">
          <mxGeometry x="20" y="730" width="70" height="30" as="geometry" />
        </mxCell>
        <mxCell id="MH4xzE_HA38-iyvbFyKe-36" value="" style="endArrow=none;dashed=1;html=1;dashPattern=1 3;strokeWidth=2;rounded=0;" parent="1" target="MH4xzE_HA38-iyvbFyKe-40" edge="1">
          <mxGeometry width="50" height="50" relative="1" as="geometry">
            <mxPoint x="130" y="410" as="sourcePoint" />
            <mxPoint x="139.99999999999955" y="360" as="targetPoint" />
            <Array as="points">
              <mxPoint x="130" y="390" />
            </Array>
          </mxGeometry>
        </mxCell>
        <mxCell id="MH4xzE_HA38-iyvbFyKe-37" value="" style="endArrow=classic;html=1;rounded=0;dashed=1;exitX=0;exitY=1;exitDx=0;exitDy=0;exitPerimeter=0;entryX=1.056;entryY=0.216;entryDx=0;entryDy=0;entryPerimeter=0;" parent="1" edge="1">
          <mxGeometry width="50" height="50" relative="1" as="geometry">
            <mxPoint x="119.99999999999955" y="360" as="sourcePoint" />
            <mxPoint x="-8.88000000000011" y="360.1600000000001" as="targetPoint" />
            <Array as="points">
              <mxPoint x="50" y="360" />
            </Array>
          </mxGeometry>
        </mxCell>
        <mxCell id="MH4xzE_HA38-iyvbFyKe-38" value="цена" style="text;html=1;align=center;verticalAlign=middle;resizable=0;points=[];autosize=1;strokeColor=none;fillColor=none;" parent="1" vertex="1">
          <mxGeometry x="30" y="335" width="50" height="30" as="geometry" />
        </mxCell>
        <mxCell id="MH4xzE_HA38-iyvbFyKe-39" value="" style="endArrow=classic;html=1;rounded=0;dashed=1;" parent="1" target="MH4xzE_HA38-iyvbFyKe-29" edge="1">
          <mxGeometry width="50" height="50" relative="1" as="geometry">
            <mxPoint x="120" y="760" as="sourcePoint" />
            <mxPoint x="-10" y="680" as="targetPoint" />
            <Array as="points">
              <mxPoint x="60" y="760" />
              <mxPoint x="30" y="760" />
            </Array>
          </mxGeometry>
        </mxCell>
        <mxCell id="MH4xzE_HA38-iyvbFyKe-40" value="" style="html=1;points=[];perimeter=orthogonalPerimeter;" parent="1" vertex="1">
          <mxGeometry x="125" y="300" width="10" height="60" as="geometry" />
        </mxCell>
        <mxCell id="MH4xzE_HA38-iyvbFyKe-41" value="" style="html=1;points=[];perimeter=orthogonalPerimeter;" parent="1" vertex="1">
          <mxGeometry x="400" y="300" width="10" height="60" as="geometry" />
        </mxCell>
        <mxCell id="MH4xzE_HA38-iyvbFyKe-42" value="dispatch" style="html=1;verticalAlign=bottom;endArrow=block;entryX=0;entryY=0;rounded=0;" parent="1" source="MH4xzE_HA38-iyvbFyKe-40" target="MH4xzE_HA38-iyvbFyKe-41" edge="1">
          <mxGeometry relative="1" as="geometry">
            <mxPoint x="560" y="400" as="sourcePoint" />
          </mxGeometry>
        </mxCell>
        <mxCell id="MH4xzE_HA38-iyvbFyKe-43" value="return" style="html=1;verticalAlign=bottom;endArrow=open;dashed=1;endSize=8;exitX=-0.057;exitY=1.007;rounded=0;entryX=1;entryY=1;entryDx=0;entryDy=0;entryPerimeter=0;exitDx=0;exitDy=0;exitPerimeter=0;" parent="1" source="MH4xzE_HA38-iyvbFyKe-41" target="MH4xzE_HA38-iyvbFyKe-40" edge="1">
          <mxGeometry relative="1" as="geometry">
            <mxPoint x="560" y="476" as="targetPoint" />
          </mxGeometry>
        </mxCell>
        <mxCell id="MH4xzE_HA38-iyvbFyKe-44" value="" style="html=1;points=[];perimeter=orthogonalPerimeter;" parent="1" vertex="1">
          <mxGeometry x="400" y="490" width="10" height="70" as="geometry" />
        </mxCell>
        <mxCell id="MH4xzE_HA38-iyvbFyKe-45" value="" style="html=1;points=[];perimeter=orthogonalPerimeter;" parent="1" vertex="1">
          <mxGeometry x="955" y="440" width="10" height="80" as="geometry" />
        </mxCell>
        <mxCell id="MH4xzE_HA38-iyvbFyKe-46" value="" style="whiteSpace=wrap;html=1;" parent="1" vertex="1">
          <mxGeometry x="1185" y="520" width="10" height="120" as="geometry" />
        </mxCell>
        <mxCell id="MH4xzE_HA38-iyvbFyKe-47" value="" style="edgeStyle=orthogonalEdgeStyle;rounded=0;orthogonalLoop=1;jettySize=auto;html=1;dashed=1;" parent="1" target="MH4xzE_HA38-iyvbFyKe-46" edge="1">
          <mxGeometry relative="1" as="geometry">
            <mxPoint x="1190" y="680" as="sourcePoint" />
          </mxGeometry>
        </mxCell>
        <mxCell id="MH4xzE_HA38-iyvbFyKe-48" value="" style="endArrow=none;dashed=1;html=1;dashPattern=1 3;strokeWidth=2;rounded=0;entryX=0.5;entryY=1;entryDx=0;entryDy=0;startArrow=none;" parent="1" source="MH4xzE_HA38-iyvbFyKe-58" target="MH4xzE_HA38-iyvbFyKe-46" edge="1">
          <mxGeometry width="50" height="50" relative="1" as="geometry">
            <mxPoint x="1190" y="760" as="sourcePoint" />
            <mxPoint x="1241" y="650" as="targetPoint" />
          </mxGeometry>
        </mxCell>
        <mxCell id="MH4xzE_HA38-iyvbFyKe-49" value="" style="whiteSpace=wrap;html=1;" parent="1" vertex="1">
          <mxGeometry x="400" y="600" width="10" height="50" as="geometry" />
        </mxCell>
        <mxCell id="MH4xzE_HA38-iyvbFyKe-50" value="заказ" style="text;html=1;align=center;verticalAlign=middle;resizable=0;points=[];autosize=1;strokeColor=none;fillColor=none;" parent="1" vertex="1">
          <mxGeometry x="240" y="260" width="50" height="30" as="geometry" />
        </mxCell>
        <mxCell id="MH4xzE_HA38-iyvbFyKe-51" value="" style="endArrow=none;dashed=1;html=1;dashPattern=1 3;strokeWidth=2;rounded=0;entryX=0.371;entryY=1.002;entryDx=0;entryDy=0;entryPerimeter=0;" parent="1" edge="1">
          <mxGeometry width="50" height="50" relative="1" as="geometry">
            <mxPoint x="762" y="760" as="sourcePoint" />
            <mxPoint x="758.71" y="550.1200000000001" as="targetPoint" />
          </mxGeometry>
        </mxCell>
        <mxCell id="MH4xzE_HA38-iyvbFyKe-52" value="" style="whiteSpace=wrap;html=1;" parent="1" vertex="1">
          <mxGeometry x="750" y="300" width="10" height="60" as="geometry" />
        </mxCell>
        <mxCell id="MH4xzE_HA38-iyvbFyKe-53" value="" style="whiteSpace=wrap;html=1;" parent="1" vertex="1">
          <mxGeometry x="950" y="300" width="20" height="60" as="geometry" />
        </mxCell>
        <mxCell id="MH4xzE_HA38-iyvbFyKe-54" value="" style="endArrow=none;dashed=1;html=1;dashPattern=1 3;strokeWidth=2;rounded=0;startArrow=none;" parent="1" source="MH4xzE_HA38-iyvbFyKe-56" edge="1">
          <mxGeometry width="50" height="50" relative="1" as="geometry">
            <mxPoint x="130" y="759.9999999999998" as="sourcePoint" />
            <mxPoint x="130" y="709.9999999999998" as="targetPoint" />
          </mxGeometry>
        </mxCell>
        <mxCell id="MH4xzE_HA38-iyvbFyKe-55" value="" style="shape=umlDestroy;whiteSpace=wrap;html=1;strokeWidth=3;" parent="1" vertex="1">
          <mxGeometry x="-40" y="830" width="40" height="40" as="geometry" />
        </mxCell>
        <mxCell id="MH4xzE_HA38-iyvbFyKe-56" value="" style="rounded=0;whiteSpace=wrap;html=1;" parent="1" vertex="1">
          <mxGeometry x="125" y="730" width="10" height="60" as="geometry" />
        </mxCell>
        <mxCell id="MH4xzE_HA38-iyvbFyKe-57" value="" style="endArrow=none;dashed=1;html=1;dashPattern=1 3;strokeWidth=2;rounded=0;" parent="1" target="MH4xzE_HA38-iyvbFyKe-56" edge="1">
          <mxGeometry width="50" height="50" relative="1" as="geometry">
            <mxPoint x="130" y="759.9999999999998" as="sourcePoint" />
            <mxPoint x="130" y="709.9999999999998" as="targetPoint" />
          </mxGeometry>
        </mxCell>
        <mxCell id="MH4xzE_HA38-iyvbFyKe-58" value="" style="whiteSpace=wrap;html=1;" parent="1" vertex="1">
          <mxGeometry x="1185" y="680" width="10" height="60" as="geometry" />
        </mxCell>
        <mxCell id="MH4xzE_HA38-iyvbFyKe-59" value="" style="endArrow=none;dashed=1;html=1;dashPattern=1 3;strokeWidth=2;rounded=0;entryX=0.5;entryY=1;entryDx=0;entryDy=0;" parent="1" target="MH4xzE_HA38-iyvbFyKe-58" edge="1">
          <mxGeometry width="50" height="50" relative="1" as="geometry">
            <mxPoint x="1190" y="759.9999999999998" as="sourcePoint" />
            <mxPoint x="1190" y="640.0000000000002" as="targetPoint" />
          </mxGeometry>
        </mxCell>
        <mxCell id="MH4xzE_HA38-iyvbFyKe-60" value="" style="whiteSpace=wrap;html=1;" parent="1" vertex="1">
          <mxGeometry x="750" y="490" width="20" height="60" as="geometry" />
        </mxCell>
      </root>
    </mxGraphModel>
  </diagram>
  <diagram id="6kcHrq39mF8WGubHnRRV" name="Страница 2">
    <mxGraphModel dx="861" dy="1656" grid="1" gridSize="10" guides="1" tooltips="1" connect="1" arrows="1" fold="1" page="1" pageScale="1" pageWidth="827" pageHeight="1169" math="0" shadow="0">
      <root>
        <mxCell id="0" />
        <mxCell id="1" parent="0" />
        <mxCell id="mJOwkslPmuFCJIf95hUw-1" value="заказчик" style="text;html=1;align=center;verticalAlign=middle;resizable=0;points=[];autosize=1;strokeColor=none;fillColor=none;" parent="1" vertex="1">
          <mxGeometry x="25" y="5" width="70" height="30" as="geometry" />
        </mxCell>
        <mxCell id="mJOwkslPmuFCJIf95hUw-4" value="сайт" style="text;html=1;align=center;verticalAlign=middle;resizable=0;points=[];autosize=1;strokeColor=none;fillColor=none;" parent="1" vertex="1">
          <mxGeometry x="180" y="5" width="50" height="30" as="geometry" />
        </mxCell>
        <mxCell id="mJOwkslPmuFCJIf95hUw-5" value="" style="endArrow=none;dashed=1;html=1;dashPattern=1 3;strokeWidth=2;rounded=0;startArrow=none;" parent="1" source="mJOwkslPmuFCJIf95hUw-7" target="mJOwkslPmuFCJIf95hUw-4" edge="1">
          <mxGeometry width="50" height="50" relative="1" as="geometry">
            <mxPoint x="210" y="490" as="sourcePoint" />
            <mxPoint x="205" y="40" as="targetPoint" />
          </mxGeometry>
        </mxCell>
        <mxCell id="mJOwkslPmuFCJIf95hUw-6" value="" style="endArrow=classic;html=1;rounded=0;entryX=0;entryY=0.333;entryDx=0;entryDy=0;entryPerimeter=0;" parent="1" source="mJOwkslPmuFCJIf95hUw-2" target="mJOwkslPmuFCJIf95hUw-7" edge="1">
          <mxGeometry width="50" height="50" relative="1" as="geometry">
            <mxPoint x="70" y="120" as="sourcePoint" />
            <mxPoint x="180" y="120" as="targetPoint" />
          </mxGeometry>
        </mxCell>
        <mxCell id="mJOwkslPmuFCJIf95hUw-7" value="" style="whiteSpace=wrap;html=1;" parent="1" vertex="1">
          <mxGeometry x="200" y="100" width="10" height="60" as="geometry" />
        </mxCell>
        <mxCell id="mJOwkslPmuFCJIf95hUw-8" value="" style="endArrow=none;dashed=1;html=1;dashPattern=1 3;strokeWidth=2;rounded=0;startArrow=none;exitX=0.5;exitY=0;exitDx=0;exitDy=0;exitPerimeter=0;" parent="1" source="P5t7cgqapnFde1zf8lOk-11" target="mJOwkslPmuFCJIf95hUw-7" edge="1">
          <mxGeometry width="50" height="50" relative="1" as="geometry">
            <mxPoint x="210" y="489.9999999999998" as="sourcePoint" />
            <mxPoint x="210" y="40" as="targetPoint" />
          </mxGeometry>
        </mxCell>
        <mxCell id="mJOwkslPmuFCJIf95hUw-9" value="менеджер&amp;nbsp;" style="text;html=1;align=center;verticalAlign=middle;resizable=0;points=[];autosize=1;strokeColor=none;fillColor=none;" parent="1" vertex="1">
          <mxGeometry x="369" y="5" width="80" height="30" as="geometry" />
        </mxCell>
        <mxCell id="mJOwkslPmuFCJIf95hUw-10" value="вход или регистрация&amp;nbsp;" style="text;html=1;align=center;verticalAlign=middle;resizable=0;points=[];autosize=1;strokeColor=none;fillColor=none;" parent="1" vertex="1">
          <mxGeometry x="60" y="90" width="150" height="30" as="geometry" />
        </mxCell>
        <mxCell id="mJOwkslPmuFCJIf95hUw-11" value="" style="endArrow=classic;html=1;rounded=0;entryX=1;entryY=1;entryDx=0;entryDy=0;" parent="1" target="mJOwkslPmuFCJIf95hUw-7" edge="1">
          <mxGeometry width="50" height="50" relative="1" as="geometry">
            <mxPoint x="210" y="120" as="sourcePoint" />
            <mxPoint x="210" y="160" as="targetPoint" />
            <Array as="points">
              <mxPoint x="240" y="120" />
              <mxPoint x="240" y="160" />
            </Array>
          </mxGeometry>
        </mxCell>
        <mxCell id="mJOwkslPmuFCJIf95hUw-12" value="проверка данный" style="text;html=1;align=center;verticalAlign=middle;resizable=0;points=[];autosize=1;strokeColor=none;fillColor=none;" parent="1" vertex="1">
          <mxGeometry x="240" y="120" width="120" height="30" as="geometry" />
        </mxCell>
        <mxCell id="mJOwkslPmuFCJIf95hUw-13" value="" style="endArrow=classic;html=1;rounded=0;exitX=1.283;exitY=0.62;exitDx=0;exitDy=0;exitPerimeter=0;" parent="1" source="mJOwkslPmuFCJIf95hUw-14" edge="1">
          <mxGeometry width="50" height="50" relative="1" as="geometry">
            <mxPoint x="360" y="190" as="sourcePoint" />
            <mxPoint x="400" y="240" as="targetPoint" />
            <Array as="points">
              <mxPoint x="350" y="240" />
            </Array>
          </mxGeometry>
        </mxCell>
        <mxCell id="mJOwkslPmuFCJIf95hUw-14" value="" style="html=1;points=[];perimeter=orthogonalPerimeter;" parent="1" vertex="1">
          <mxGeometry x="200" y="190" width="10" height="80" as="geometry" />
        </mxCell>
        <mxCell id="mJOwkslPmuFCJIf95hUw-15" value="магазин чая" style="shape=note;whiteSpace=wrap;html=1;backgroundOutline=1;darkOpacity=0.05;" parent="1" vertex="1">
          <mxGeometry y="-30" width="140" height="30" as="geometry" />
        </mxCell>
        <mxCell id="mJOwkslPmuFCJIf95hUw-16" value="" style="html=1;points=[];perimeter=orthogonalPerimeter;" parent="1" vertex="1">
          <mxGeometry x="404" y="180" width="10" height="80" as="geometry" />
        </mxCell>
        <mxCell id="mJOwkslPmuFCJIf95hUw-17" value="" style="endArrow=none;dashed=1;html=1;dashPattern=1 3;strokeWidth=2;rounded=0;" parent="1" edge="1">
          <mxGeometry width="50" height="50" relative="1" as="geometry">
            <mxPoint x="410" y="180" as="sourcePoint" />
            <mxPoint x="410" y="40" as="targetPoint" />
          </mxGeometry>
        </mxCell>
        <mxCell id="mJOwkslPmuFCJIf95hUw-18" value="" style="endArrow=classic;html=1;rounded=0;entryX=0;entryY=1;entryDx=0;entryDy=0;exitX=0.974;exitY=0.239;exitDx=0;exitDy=0;exitPerimeter=0;" parent="1" target="mJOwkslPmuFCJIf95hUw-7" edge="1" source="mJOwkslPmuFCJIf95hUw-3">
          <mxGeometry width="50" height="50" relative="1" as="geometry">
            <mxPoint x="70" y="160" as="sourcePoint" />
            <mxPoint x="120" y="110" as="targetPoint" />
          </mxGeometry>
        </mxCell>
        <mxCell id="mJOwkslPmuFCJIf95hUw-19" value="выбор заказа" style="text;html=1;align=center;verticalAlign=middle;resizable=0;points=[];autosize=1;strokeColor=none;fillColor=none;" parent="1" vertex="1">
          <mxGeometry x="80" y="135" width="100" height="30" as="geometry" />
        </mxCell>
        <mxCell id="mJOwkslPmuFCJIf95hUw-20" value="заказ" style="text;html=1;align=center;verticalAlign=middle;resizable=0;points=[];autosize=1;strokeColor=none;fillColor=none;" parent="1" vertex="1">
          <mxGeometry x="275" y="215" width="50" height="30" as="geometry" />
        </mxCell>
        <mxCell id="mJOwkslPmuFCJIf95hUw-21" value="" style="endArrow=none;dashed=1;html=1;dashPattern=1 3;strokeWidth=2;rounded=0;" parent="1" edge="1">
          <mxGeometry width="50" height="50" relative="1" as="geometry">
            <mxPoint x="409" y="360" as="sourcePoint" />
            <mxPoint x="409" y="260" as="targetPoint" />
          </mxGeometry>
        </mxCell>
        <mxCell id="mJOwkslPmuFCJIf95hUw-22" value="" style="endArrow=classic;html=1;rounded=0;exitX=1.006;exitY=0.727;exitDx=0;exitDy=0;exitPerimeter=0;entryX=0;entryY=0.875;entryDx=0;entryDy=0;entryPerimeter=0;" parent="1" source="mJOwkslPmuFCJIf95hUw-16" target="mJOwkslPmuFCJIf95hUw-25" edge="1">
          <mxGeometry width="50" height="50" relative="1" as="geometry">
            <mxPoint x="414" y="245" as="sourcePoint" />
            <mxPoint x="490" y="240" as="targetPoint" />
          </mxGeometry>
        </mxCell>
        <mxCell id="mJOwkslPmuFCJIf95hUw-23" value="завсклада&amp;nbsp;" style="text;html=1;align=center;verticalAlign=middle;resizable=0;points=[];autosize=1;strokeColor=none;fillColor=none;" parent="1" vertex="1">
          <mxGeometry x="515" y="5" width="80" height="30" as="geometry" />
        </mxCell>
        <mxCell id="mJOwkslPmuFCJIf95hUw-25" value="" style="html=1;points=[];perimeter=orthogonalPerimeter;" parent="1" vertex="1">
          <mxGeometry x="550" y="170" width="10" height="80" as="geometry" />
        </mxCell>
        <mxCell id="mJOwkslPmuFCJIf95hUw-26" value="поиск товара" style="text;html=1;align=center;verticalAlign=middle;resizable=0;points=[];autosize=1;strokeColor=none;fillColor=none;" parent="1" vertex="1">
          <mxGeometry x="440" y="215" width="100" height="30" as="geometry" />
        </mxCell>
        <mxCell id="P5t7cgqapnFde1zf8lOk-1" value="" style="shape=umlLifeline;participant=umlActor;perimeter=lifelinePerimeter;whiteSpace=wrap;html=1;container=1;collapsible=0;recursiveResize=0;verticalAlign=top;spacingTop=36;outlineConnect=0;" vertex="1" parent="1">
          <mxGeometry x="40" y="35" width="20" height="375" as="geometry" />
        </mxCell>
        <mxCell id="mJOwkslPmuFCJIf95hUw-2" value="" style="html=1;points=[];perimeter=orthogonalPerimeter;" parent="P5t7cgqapnFde1zf8lOk-1" vertex="1">
          <mxGeometry x="5" y="65" width="10" height="35" as="geometry" />
        </mxCell>
        <mxCell id="mJOwkslPmuFCJIf95hUw-3" value="" style="html=1;points=[];perimeter=orthogonalPerimeter;" parent="P5t7cgqapnFde1zf8lOk-1" vertex="1">
          <mxGeometry x="5" y="115" width="10" height="45" as="geometry" />
        </mxCell>
        <mxCell id="P5t7cgqapnFde1zf8lOk-3" style="edgeStyle=orthogonalEdgeStyle;rounded=0;orthogonalLoop=1;jettySize=auto;html=1;endArrow=none;endFill=0;dashed=1;" edge="1" parent="1" source="P5t7cgqapnFde1zf8lOk-2">
          <mxGeometry relative="1" as="geometry">
            <mxPoint x="650" y="170" as="targetPoint" />
          </mxGeometry>
        </mxCell>
        <mxCell id="P5t7cgqapnFde1zf8lOk-2" value="Админ" style="text;html=1;align=center;verticalAlign=middle;resizable=0;points=[];autosize=1;strokeColor=none;fillColor=none;" vertex="1" parent="1">
          <mxGeometry x="620" y="5" width="60" height="30" as="geometry" />
        </mxCell>
        <mxCell id="P5t7cgqapnFde1zf8lOk-4" value="" style="html=1;points=[];perimeter=orthogonalPerimeter;" vertex="1" parent="1">
          <mxGeometry x="645" y="170" width="10" height="80" as="geometry" />
        </mxCell>
        <mxCell id="P5t7cgqapnFde1zf8lOk-5" value="" style="endArrow=classic;html=1;rounded=0;entryX=1;entryY=0.833;entryDx=0;entryDy=0;entryPerimeter=0;" edge="1" parent="1" target="P5t7cgqapnFde1zf8lOk-7">
          <mxGeometry width="50" height="50" relative="1" as="geometry">
            <mxPoint x="560" y="240" as="sourcePoint" />
            <mxPoint x="640" y="240" as="targetPoint" />
          </mxGeometry>
        </mxCell>
        <mxCell id="P5t7cgqapnFde1zf8lOk-7" value="стоимость&amp;nbsp;" style="text;html=1;align=center;verticalAlign=middle;resizable=0;points=[];autosize=1;strokeColor=none;fillColor=none;" vertex="1" parent="1">
          <mxGeometry x="560" y="215" width="80" height="30" as="geometry" />
        </mxCell>
        <mxCell id="P5t7cgqapnFde1zf8lOk-8" value="" style="endArrow=none;dashed=1;html=1;dashPattern=1 3;strokeWidth=2;rounded=0;entryX=0.598;entryY=1.028;entryDx=0;entryDy=0;entryPerimeter=0;" edge="1" parent="1" target="P5t7cgqapnFde1zf8lOk-4">
          <mxGeometry width="50" height="50" relative="1" as="geometry">
            <mxPoint x="650" y="360" as="sourcePoint" />
            <mxPoint x="655" y="250" as="targetPoint" />
          </mxGeometry>
        </mxCell>
        <mxCell id="P5t7cgqapnFde1zf8lOk-9" value="" style="html=1;points=[];perimeter=orthogonalPerimeter;" vertex="1" parent="1">
          <mxGeometry x="645" y="360" width="10" height="80" as="geometry" />
        </mxCell>
        <mxCell id="P5t7cgqapnFde1zf8lOk-10" value="" style="endArrow=classic;html=1;rounded=0;entryX=0.96;entryY=1;entryDx=0;entryDy=0;entryPerimeter=0;" edge="1" parent="1" target="P5t7cgqapnFde1zf8lOk-11">
          <mxGeometry width="50" height="50" relative="1" as="geometry">
            <mxPoint x="645" y="440" as="sourcePoint" />
            <mxPoint x="220" y="440" as="targetPoint" />
          </mxGeometry>
        </mxCell>
        <mxCell id="P5t7cgqapnFde1zf8lOk-11" value="" style="html=1;points=[];perimeter=orthogonalPerimeter;" vertex="1" parent="1">
          <mxGeometry x="200" y="370" width="10" height="70" as="geometry" />
        </mxCell>
        <mxCell id="P5t7cgqapnFde1zf8lOk-12" value="стоимость" style="text;html=1;align=center;verticalAlign=middle;resizable=0;points=[];autosize=1;strokeColor=none;fillColor=none;" vertex="1" parent="1">
          <mxGeometry x="300" y="410" width="80" height="30" as="geometry" />
        </mxCell>
        <mxCell id="P5t7cgqapnFde1zf8lOk-13" value="" style="endArrow=none;dashed=1;html=1;dashPattern=1 3;strokeWidth=2;rounded=0;exitX=0.443;exitY=-0.045;exitDx=0;exitDy=0;exitPerimeter=0;" edge="1" parent="1" source="mJOwkslPmuFCJIf95hUw-25">
          <mxGeometry width="50" height="50" relative="1" as="geometry">
            <mxPoint x="510" y="85" as="sourcePoint" />
            <mxPoint x="554" y="40" as="targetPoint" />
          </mxGeometry>
        </mxCell>
      </root>
    </mxGraphModel>
  </diagram>
</mxfile>
